<?xml version="1.0" standalone="no"?>
<!DOCTYPE svg PUBLIC "-//W3C//DTD SVG 20010904//EN"
 "http://www.w3.org/TR/2001/REC-SVG-20010904/DTD/svg10.dtd">
<svg version="1.0" xmlns="http://www.w3.org/2000/svg"
 width="200.000000pt" height="200.000000pt" viewBox="0 0 200.000000 200.000000"
 preserveAspectRatio="xMidYMid meet">
<metadata>
Created by potrace 1.15, written by Peter Selinger 2001-2017
</metadata>
<g transform="translate(0.000000,200.000000) scale(0.100000,-0.100000)"
fill="#000000" stroke="none">
<path d="M1727 1280 c-12 -33 -26 -54 -40 -59 -12 -5 -83 -12 -157 -16 -224
-12 -247 -24 -43 -22 100 1 185 -1 189 -5 4 -4 -23 -101 -60 -215 -87 -269
-89 -273 -83 -279 6 -7 56 121 117 301 74 217 62 203 175 212 106 7 110 17 10
23 l-90 5 3 53 c1 28 1 52 0 52 -2 0 -11 -23 -21 -50z"/>
<path d="M511 1118 c-10 -13 -38 -47 -61 -77 -32 -40 -44 -50 -51 -40 -5 8 -7
25 -4 39 3 14 -1 34 -9 45 -14 20 -15 20 -41 -5 -15 -14 -46 -52 -69 -85 -23
-33 -78 -103 -122 -155 -106 -126 -114 -146 -17 -41 179 194 181 196 193 185
9 -9 9 -26 0 -67 -7 -30 -10 -63 -6 -73 6 -15 9 -15 32 7 15 13 44 51 67 84
52 77 79 108 87 95 3 -5 2 -55 -2 -112 -12 -148 -5 -150 22 -8 37 195 31 266
-19 208z"/>
</g>
</svg>
