<?xml version="1.0" standalone="no"?>
<!DOCTYPE svg PUBLIC "-//W3C//DTD SVG 20010904//EN"
 "http://www.w3.org/TR/2001/REC-SVG-20010904/DTD/svg10.dtd">
<svg version="1.0" xmlns="http://www.w3.org/2000/svg"
 width="2550.000000pt" height="876.000000pt" viewBox="0 0 2550.000000 876.000000"
 preserveAspectRatio="xMidYMid meet">
<metadata>
Created by potrace 1.15, written by Peter Selinger 2001-2017
</metadata>
<g transform="translate(0.000000,876.000000) scale(0.100000,-0.100000)"
fill="#000000" stroke="none">
<path d="M20594 7695 c-7 -19 -14 -41 -14 -48 0 -8 -12 -32 -27 -53 -24 -35
-27 -51 -33 -164 -5 -82 -13 -138 -23 -162 -24 -54 -23 -188 3 -270 30 -94 34
-155 16 -207 -10 -27 -16 -76 -16 -129 0 -47 -5 -101 -12 -119 -10 -28 -8 -56
15 -181 15 -81 27 -176 27 -210 0 -57 -3 -64 -35 -96 -31 -32 -35 -41 -35 -88
0 -29 5 -80 10 -113 8 -48 7 -63 -5 -82 -20 -30 -19 -140 1 -413 15 -199 15
-223 0 -320 -49 -313 -128 -1118 -142 -1435 l-6 -150 67 -355 c116 -619 149
-762 220 -930 55 -129 84 -161 152 -167 56 -6 149 22 229 68 28 16 61 29 73
29 80 0 148 -112 181 -298 7 -40 17 -69 21 -65 14 16 33 334 33 583 1 202 -3
278 -17 365 -29 177 -82 414 -146 652 -77 288 -86 341 -85 508 0 148 10 228
51 390 19 76 25 125 24 205 0 171 -33 271 -172 522 -90 162 -95 193 -109 583
-6 165 -16 350 -23 410 -6 61 -12 178 -12 260 0 101 -4 157 -12 172 -17 29
-16 165 2 283 28 180 17 306 -35 410 -34 68 -43 113 -75 370 -28 229 -39 280
-61 280 -8 0 -22 -16 -30 -35z"/>
<path d="M19559 7710 c-25 -4 -96 -24 -157 -44 -123 -40 -187 -45 -266 -21
-27 8 -64 15 -82 15 -100 0 -159 -177 -94 -287 l19 -33 -32 0 c-74 -1 -180
-77 -223 -162 -17 -33 -36 -54 -62 -67 -94 -48 -336 -90 -563 -98 -214 -8
-250 -2 -303 47 -67 62 -201 121 -308 135 -66 10 -122 -2 -162 -34 -50 -40
-96 -44 -295 -25 -212 20 -401 15 -479 -11 -63 -22 -132 -80 -158 -132 -16
-32 -20 -74 -25 -263 -6 -183 -12 -249 -33 -355 -36 -176 -71 -285 -116 -353
-65 -102 -80 -157 -129 -497 -17 -115 -36 -226 -41 -245 -6 -19 -29 -101 -50
-182 -42 -159 -72 -229 -119 -275 -36 -36 -65 -43 -185 -43 -293 0 -420 -99
-472 -368 -8 -41 -14 -119 -14 -174 l0 -101 53 50 c137 130 279 172 412 122
72 -27 172 -118 236 -216 l47 -73 6 98 c11 172 28 314 43 366 45 153 215 422
370 587 84 89 79 48 113 886 14 333 35 483 70 483 5 0 28 -28 52 -62 36 -52
49 -64 75 -66 27 -3 34 2 47 27 29 56 46 155 58 343 l12 187 19 -32 c55 -93
104 -112 188 -75 74 32 120 28 206 -15 103 -52 130 -50 183 13 44 52 103 90
141 90 37 0 91 -32 120 -73 24 -34 29 -50 29 -101 0 -72 24 -144 62 -189 23
-27 29 -30 38 -17 6 8 8 29 5 46 -7 42 2 47 40 19 17 -14 40 -25 49 -25 20 0
333 89 706 201 182 55 275 88 298 106 52 39 90 132 124 301 24 124 33 151 56
175 55 58 161 99 481 187 239 65 313 77 511 84 170 7 320 30 378 60 58 30 48
36 -63 36 -164 0 -436 19 -583 40 -143 21 -161 22 -233 10z"/>
<path d="M21010 7704 c-81 -8 -270 -46 -270 -55 0 -13 73 -47 137 -64 38 -10
98 -15 173 -14 98 2 124 -2 175 -21 95 -36 247 -120 286 -157 35 -34 72 -102
83 -155 3 -14 18 -40 32 -57 40 -47 205 -153 339 -217 137 -65 155 -78 155
-110 0 -17 7 -25 25 -30 30 -7 46 2 138 85 103 92 165 118 220 90 12 -6 51
-42 87 -80 58 -63 75 -74 161 -109 112 -45 242 -120 316 -182 115 -96 165
-190 189 -354 37 -247 161 -465 353 -618 51 -41 73 -67 89 -104 47 -108 51
-252 17 -543 -18 -155 -20 -300 -2 -321 6 -8 28 -27 49 -42 48 -35 65 -74 94
-213 15 -73 37 -139 56 -177 44 -83 193 -232 271 -269 151 -72 240 -212 272
-431 16 -115 19 -53 5 114 -39 455 -132 702 -337 888 -71 65 -90 90 -123 157
-21 44 -53 132 -70 195 -18 63 -41 137 -51 163 -21 54 -24 158 -10 382 12 183
1 264 -44 334 -62 95 -104 196 -142 334 -19 72 -42 146 -51 162 -21 44 -110
149 -197 235 -60 60 -84 93 -120 167 -80 164 -180 252 -431 377 -82 42 -168
91 -191 111 -23 19 -57 42 -76 50 -116 48 -344 11 -459 -76 -29 -21 -56 -39
-61 -39 -24 0 -87 36 -120 68 -64 62 -82 104 -82 202 0 79 -2 85 -22 88 -26 4
-71 -18 -97 -47 -38 -42 -54 -24 -96 103 -29 87 -56 116 -108 116 -22 0 -56
-7 -77 -16 -36 -15 -39 -14 -124 20 -47 19 -104 39 -126 45 -47 13 -171 20
-235 15z"/>
<path d="M4868 7596 c-121 -43 -206 -131 -306 -319 -38 -72 -158 -305 -264
-517 -247 -488 -271 -549 -861 -2175 -431 -1186 -562 -1530 -798 -2093 -146
-349 -203 -448 -282 -489 -35 -17 -86 -12 -124 12 -101 67 -297 570 -558 1439
-180 598 -185 615 -279 845 -35 86 -78 203 -96 261 -75 242 -177 469 -233 516
-46 38 -106 30 -191 -25 -159 -104 -226 -229 -226 -422 0 -190 51 -369 202
-709 160 -360 314 -762 483 -1255 201 -588 215 -627 286 -765 69 -133 137
-228 264 -366 121 -132 224 -218 314 -262 72 -36 79 -37 181 -37 99 0 109 2
173 33 155 77 321 302 513 697 116 239 191 441 949 2540 167 462 346 957 398
1100 306 840 525 1337 708 1615 78 118 82 127 82 180 0 139 -75 210 -223 209
-41 0 -91 -6 -112 -13z"/>
<path d="M20869 7433 c-9 -10 -19 -23 -23 -30 -6 -11 13 -347 49 -848 8 -115
22 -356 30 -535 18 -393 21 -432 46 -540 52 -226 138 -410 180 -385 17 11 6
215 -30 540 -41 367 -53 541 -45 665 7 122 -5 257 -47 530 -39 250 -45 342
-29 409 25 103 -14 203 -81 209 -24 2 -40 -3 -50 -15z"/>
<path d="M20203 6892 c-42 -76 -66 -177 -57 -245 8 -68 44 -230 54 -240 4 -4
10 24 14 63 3 38 13 89 22 113 27 73 31 367 6 367 -4 0 -22 -26 -39 -58z"/>
<path d="M7065 4321 c-58 -26 -97 -62 -163 -150 -103 -136 -213 -374 -288
-618 -162 -533 -243 -1006 -231 -1360 7 -234 39 -361 111 -441 l36 -40 -36
-21 c-60 -36 -443 -94 -799 -122 -237 -19 -689 -17 -807 4 -240 42 -400 119
-534 259 -74 77 -115 137 -159 231 -58 127 -87 233 -89 324 -1 77 1 83 27 111
43 45 96 53 377 62 149 5 299 15 360 25 381 61 689 200 891 404 71 72 95 104
133 182 62 125 80 212 72 354 -16 319 -149 479 -465 562 -133 35 -373 43 -522
18 -404 -67 -737 -288 -1040 -691 -427 -568 -508 -1196 -209 -1628 162 -235
447 -416 790 -501 196 -49 305 -60 600 -60 336 1 513 23 844 106 262 66 385
116 570 232 l90 56 28 -20 c15 -11 40 -35 56 -54 l28 -35 64 38 c85 50 207
171 258 258 82 138 103 217 137 524 44 391 168 779 332 1035 115 179 229 288
378 360 110 54 203 77 315 78 75 1 92 -2 139 -27 99 -51 213 -188 281 -339 93
-207 177 -502 209 -742 36 -263 42 -359 40 -665 -2 -259 1 -334 19 -495 12
-104 22 -194 22 -199 0 -5 26 -6 58 -3 139 15 239 69 282 152 25 49 25 53 24
270 0 121 -8 288 -17 372 -12 123 -13 185 -5 335 22 402 -20 804 -112 1081
-94 283 -244 488 -420 577 -116 58 -156 65 -385 65 -239 -1 -336 -14 -502 -70
-165 -55 -326 -146 -498 -280 l-93 -73 -6 47 c-3 26 -2 90 4 142 15 143 13
267 -6 316 -26 67 -108 91 -189 54z m-1479 -606 c37 -18 64 -40 82 -68 25 -38
27 -48 27 -146 0 -100 -2 -110 -32 -167 -60 -115 -174 -218 -357 -322 -247
-142 -546 -196 -951 -172 -110 7 -202 14 -204 16 -2 2 36 4 85 5 49 0 109 4
134 8 l45 7 -30 14 c-17 9 -31 25 -33 37 -6 43 82 181 236 366 137 165 368
327 544 383 75 23 67 31 -9 9 -116 -33 -381 -181 -438 -245 -11 -12 -33 -31
-50 -43 -21 -14 -15 -4 20 32 125 132 387 267 580 300 33 6 71 13 85 15 14 3
67 3 118 1 77 -3 104 -8 148 -30z"/>
<path d="M13741 4210 c-161 -11 -388 -42 -554 -76 -67 -13 -214 -38 -327 -55
-386 -57 -539 -102 -603 -178 -77 -92 -53 -261 46 -313 40 -22 52 -23 277 -23
269 1 320 7 735 90 297 59 522 95 601 95 78 0 102 -36 67 -103 -120 -234 -650
-854 -1068 -1252 -405 -384 -528 -520 -609 -667 -29 -51 -43 -68 -64 -72 -15
-3 -146 -27 -292 -53 l-265 -48 -420 1 c-350 0 -436 3 -519 17 -363 63 -596
244 -716 553 -57 150 -73 218 -67 296 8 127 18 131 377 139 184 4 322 12 390
23 580 91 1009 385 1085 742 21 100 19 228 -5 307 -25 79 -100 196 -166 258
-125 116 -409 200 -679 201 -347 2 -621 -117 -912 -395 -438 -420 -679 -960
-633 -1416 26 -265 110 -450 285 -627 226 -229 514 -359 925 -416 143 -20 591
-17 750 5 309 43 655 133 856 223 6 3 19 -14 29 -36 37 -81 137 -146 272 -175
37 -9 127 -18 198 -21 142 -7 590 9 890 32 194 14 372 25 755 44 510 26 682
71 657 172 -17 66 -220 100 -677 114 -171 5 -285 2 -475 -12 -309 -22 -758
-25 -865 -5 -97 17 -157 43 -171 74 -10 21 -7 33 16 75 73 134 280 332 890
847 400 337 518 460 629 650 145 250 200 621 116 786 -42 82 -150 152 -281
184 -81 19 -304 26 -478 15z"/>
<path d="M23235 4100 c-234 -20 -401 -80 -602 -217 -180 -122 -271 -201 -394
-339 -326 -368 -532 -726 -605 -1054 -59 -267 -76 -577 -41 -735 59 -260 221
-429 472 -496 109 -30 379 -32 538 -6 416 70 895 257 1134 444 52 41 96 73 98
71 1 -2 39 -49 85 -106 165 -206 369 -354 557 -401 108 -28 240 -43 263 -31
26 14 50 50 50 76 0 28 -51 73 -131 115 -74 40 -204 159 -264 244 -24 34 -65
104 -90 156 -74 153 -79 194 -79 684 0 231 1 537 4 680 3 243 2 265 -18 339
-40 145 -133 299 -237 395 -72 65 -116 90 -236 135 -142 52 -276 64 -504 46z
m301 -405 c27 -8 78 -34 113 -57 117 -78 155 -186 171 -490 17 -311 -10 -618
-75 -843 -32 -113 -120 -293 -178 -365 -71 -90 -248 -203 -387 -248 -187 -61
-310 -84 -480 -89 -140 -4 -180 -2 -264 16 -181 37 -245 87 -268 210 -14 76 0
212 37 355 79 304 304 745 515 1011 88 111 313 338 386 391 144 103 310 145
430 109z"/>
<path d="M19075 4036 c-434 -68 -778 -332 -1146 -880 -93 -137 -144 -236 -187
-358 -53 -150 -66 -240 -66 -453 1 -278 34 -418 139 -575 187 -281 533 -462
1020 -532 137 -20 588 -17 745 5 288 40 656 132 807 202 80 37 207 111 322
188 l73 49 -7 56 c-4 32 -8 58 -9 59 -1 2 -21 -6 -43 -17 -89 -42 -512 -161
-733 -204 -323 -64 -527 -88 -750 -89 -193 -1 -289 9 -429 44 -416 104 -670
405 -712 845 -11 118 -6 164 23 212 44 73 94 82 518 92 479 12 638 39 847 141
199 98 306 179 383 294 101 150 130 234 130 374 0 225 -78 369 -242 452 -192
97 -444 132 -683 95z"/>
<path d="M15297 3945 c-155 -64 -288 -189 -362 -337 -94 -192 -110 -328 -102
-843 8 -483 28 -664 98 -877 129 -395 380 -598 759 -615 258 -12 505 51 746
188 97 55 182 140 319 315 60 77 111 142 115 147 3 4 21 -30 39 -75 18 -46 96
-210 172 -365 134 -275 140 -284 186 -313 82 -52 178 -37 202 32 18 50 14 69
-33 166 -64 131 -107 276 -151 517 -47 253 -55 406 -30 595 33 252 47 543 40
840 -8 324 -17 427 -42 478 -36 72 -80 68 -162 -16 -134 -137 -152 -189 -211
-615 -35 -254 -112 -603 -163 -737 -63 -169 -172 -324 -357 -511 -114 -116
-116 -117 -263 -190 -141 -69 -153 -73 -231 -77 -91 -5 -141 10 -212 64 -83
64 -171 227 -213 395 -60 241 -52 422 40 897 76 395 94 592 66 713 -24 100
-56 177 -89 215 -37 42 -76 44 -161 9z"/>
</g>
</svg>
